<svg width="16" height="16" viewBox="0 0 16 16" fill="none" xmlns="http://www.w3.org/2000/svg">
<path d="M5.72008 15.0334C5.57341 15.0334 5.42008 15.0067 5.28008 14.9467C4.96674 14.8134 4.72674 14.5534 4.62007 14.2267L4.32674 13.3467C4.19341 12.9467 4.31341 12.4467 4.60674 12.1467L6.12008 10.6267C6.14008 10.6067 6.16674 10.5334 6.16674 10.5V8.85338L3.12674 10.1667C2.72007 10.34 2.30674 10.32 1.99341 10.1134C1.68007 9.90671 1.49341 9.53338 1.49341 9.10005V8.24005C1.49341 7.58671 1.96007 6.88671 2.55341 6.65338L6.16008 5.09338V3.20005C6.16008 2.39338 6.72674 1.46671 7.44674 1.09338C7.79341 0.920046 8.19341 0.920046 8.53341 1.09338C9.26008 1.46671 9.82674 2.38671 9.82674 3.19338V5.08671L13.4534 6.64671C14.0467 6.90005 14.5001 7.58005 14.5001 8.24005V9.10005C14.5001 9.54005 14.3201 9.90671 14.0001 10.1134C13.6801 10.32 13.2734 10.34 12.8667 10.1734L9.82674 8.86005V10.5067C9.82674 10.5334 9.85341 10.6 9.87341 10.62L11.3934 12.1467C11.6867 12.44 11.8067 12.9534 11.6734 13.3467L11.3801 14.2267C11.2667 14.5534 11.0267 14.8134 10.7067 14.94C10.3934 15.0667 10.0467 15.0534 9.74674 14.9067C9.71341 14.8867 9.68008 14.8667 9.64674 14.84L8.09341 13.5334C8.04008 13.4867 7.93341 13.4934 7.88674 13.5334L6.33341 14.84C6.30674 14.8667 6.27341 14.8867 6.24007 14.9C6.08007 14.9934 5.90008 15.0334 5.72008 15.0334ZM6.37341 7.76005C6.52674 7.76005 6.67341 7.80005 6.80008 7.88671C7.03341 8.04005 7.16674 8.30005 7.16674 8.60671V10.5067C7.16674 10.7934 7.02674 11.1334 6.82674 11.3334L5.31341 12.8534C5.28674 12.8867 5.26008 12.9867 5.27341 13.0267L5.56674 13.9134C5.58674 13.98 5.63341 14.0067 5.66007 14.02C5.68007 14.0267 5.71341 14.04 5.75341 14.0267L7.24674 12.7667C7.66674 12.4067 8.32674 12.4067 8.74674 12.7667L10.2334 14.02C10.2801 14.0267 10.3134 14.02 10.3334 14.0134C10.3601 14 10.4134 13.9734 10.4334 13.9067L10.7267 13.0267C10.7401 12.98 10.7134 12.88 10.6867 12.8534L9.17341 11.3334C8.97341 11.1467 8.82674 10.8 8.82674 10.5067V8.60671C8.82674 8.30671 8.95341 8.04671 9.18008 7.89338C9.40674 7.74005 9.70008 7.72005 9.98008 7.84005L13.2601 9.25338C13.3601 9.29338 13.4267 9.29338 13.4467 9.28005C13.4667 9.26671 13.4934 9.20671 13.4934 9.10005V8.24005C13.4934 7.98671 13.2801 7.66005 13.0534 7.56671L9.33341 5.96005C9.04008 5.83338 8.83341 5.51338 8.83341 5.19338V3.19338C8.83341 2.75338 8.48674 2.18671 8.08674 1.98671C8.03341 1.96005 7.96674 1.96005 7.90674 1.98671C7.52007 2.18671 7.16674 2.76671 7.16674 3.20005V5.20005C7.16674 5.51338 6.96008 5.84005 6.66674 5.96671L2.94674 7.57338C2.71341 7.66671 2.50007 7.99338 2.50007 8.24005V9.10005C2.50007 9.20671 2.52674 9.26671 2.54674 9.28005C2.56674 9.29338 2.63341 9.29338 2.73341 9.25338L6.00674 7.84005C6.12674 7.78671 6.25341 7.76005 6.37341 7.76005Z" fill="#404040"/>
</svg>
