<svg width="25" height="26" viewBox="0 0 25 26" fill="none" xmlns="http://www.w3.org/2000/svg">
<path d="M2.3035 9.39716C2.30733 9.17719 2.35132 8.94792 2.44497 8.73952C2.65311 8.27307 3.04932 7.91991 3.54203 7.76846L4.86948 7.3515C5.47287 7.16197 6.21963 7.35499 6.6619 7.80275L8.90206 10.1121C8.93153 10.1426 9.04082 10.1845 9.09081 10.1854L11.5604 10.2284L9.67008 5.63477C9.42074 5.02034 9.46152 4.40095 9.77965 3.93642C10.0978 3.47188 10.6626 3.20167 11.3125 3.21298L12.6023 3.23543C13.5821 3.25248 14.6198 3.97064 14.9543 4.8666L17.1998 10.3165L20.0393 10.3659C21.2491 10.387 22.6241 11.261 23.1653 12.3506C23.4162 12.8751 23.4057 13.475 23.1369 13.9804C22.558 15.0605 21.1634 15.8863 19.9536 15.8653L17.1141 15.8158L14.6797 21.2143C14.2843 22.0976 13.2526 22.7597 12.2628 22.7425L10.973 22.72C10.3131 22.7085 9.76787 22.429 9.46627 21.9437C9.16467 21.4584 9.14529 20.8479 9.40586 20.2424L11.4549 15.7174L8.98528 15.6744C8.94529 15.6737 8.84461 15.7119 8.81409 15.7414L6.48477 17.9812C6.03718 18.4135 5.26416 18.5801 4.67773 18.3698L3.36559 17.9069C2.87862 17.7284 2.49494 17.3617 2.31332 16.8785C2.13153 16.4052 2.16058 15.8857 2.38837 15.4395C2.41924 15.3901 2.4501 15.3406 2.49097 15.2913L4.49121 12.9958C4.5626 12.917 4.55538 12.7568 4.49661 12.6858L2.57745 10.3221C2.53815 10.2814 2.50902 10.2309 2.4899 10.1805C2.3541 9.93812 2.2988 9.66711 2.3035 9.39716ZM13.1948 10.5668C13.1908 10.7968 13.127 11.0157 12.9937 11.2034C12.7576 11.5494 12.3642 11.7426 11.9043 11.7346L9.05471 11.685C8.62478 11.6775 8.11851 11.4587 7.82378 11.1535L5.58362 8.84415C5.53432 8.80328 5.38504 8.76068 5.3247 8.77963L3.98725 9.19642C3.88674 9.22468 3.84553 9.29397 3.82484 9.33362C3.81431 9.36344 3.79345 9.41308 3.8124 9.47342L5.66314 11.746C6.1921 12.3853 6.17487 13.3751 5.62399 13.9956L3.70547 16.1926C3.69425 16.2624 3.70338 16.3126 3.71286 16.3427C3.73216 16.3831 3.77076 16.4638 3.87022 16.4955L5.18237 16.9584C5.25201 16.9796 5.40268 16.9422 5.44337 16.9029L7.76253 14.6729C8.0477 14.3779 8.57145 14.1669 9.01139 14.1746L11.861 14.2242C12.3109 14.232 12.6975 14.4288 12.9216 14.7727C13.1456 15.1167 13.168 15.5571 12.9807 15.9739L10.7754 20.8563C10.7128 21.0052 10.711 21.1052 10.7305 21.1356C10.75 21.1659 10.8393 21.2075 10.9993 21.2103L12.2891 21.2327C12.669 21.2393 13.1645 20.9279 13.3104 20.5904L15.8171 15.0532C16.0148 14.6165 16.5001 14.3149 16.98 14.3233L19.9796 14.3755C20.6395 14.387 21.4984 13.8818 21.8088 13.2871C21.8502 13.2079 21.8519 13.1079 21.8135 13.0172C21.5236 12.4321 20.663 11.887 20.0131 11.8757L17.0135 11.8235C16.5436 11.8153 16.059 11.4968 15.8767 11.0536L13.5642 5.4325C13.4303 5.08011 12.9459 4.75164 12.576 4.7452L11.2862 4.72275C11.1262 4.71997 11.0355 4.7584 11.015 4.78804C10.9945 4.81769 10.9928 4.91768 11.0501 5.0687L13.0844 10.0148C13.1612 10.1962 13.1979 10.3869 13.1948 10.5668Z" fill="#202020"/>
</svg>
