<svg width="28" height="34" viewBox="0 0 28 34" fill="none" xmlns="http://www.w3.org/2000/svg">
<path d="M23.3864 18.0811C23.3473 13.7857 26.9464 11.696 27.111 11.5987C25.0727 8.66274 21.9133 8.26159 20.8031 8.2296C18.1496 7.95373 15.5757 9.79822 14.224 9.79822C12.8453 9.79822 10.7638 8.25626 8.52042 8.30157C5.63356 8.34555 2.93286 9.9968 1.45165 12.561C-1.60518 17.7893 0.67463 25.4724 3.60331 29.6985C5.06833 31.7683 6.78021 34.0792 9.0209 33.9979C11.213 33.9086 12.0319 32.6172 14.6773 32.6172C17.2984 32.6172 18.0673 33.9979 20.3525 33.9459C22.7052 33.9086 24.1864 31.8669 25.6001 29.7785C27.2931 27.4062 27.973 25.07 28 24.95C27.9447 24.9314 23.4309 23.2295 23.3864 18.0811Z" fill="white"/>
<path d="M19.0696 5.44953C20.2486 3.99286 21.0553 2.01109 20.8314 0C19.1249 0.0746328 16.9908 1.16614 15.7619 2.59083C14.6746 3.84626 13.7033 5.90399 13.9542 7.83911C15.8711 7.98038 17.8393 6.88354 19.0696 5.44953Z" fill="white"/>
</svg>
