<svg width="25" height="24" viewBox="0 0 25 24" fill="none" xmlns="http://www.w3.org/2000/svg">
<path d="M17.95 22.75C16.82 22.75 15.63 22.48 14.4 21.96C13.2 21.45 11.99 20.75 10.81 19.9C9.64 19.04 8.51 18.08 7.44 17.03C6.38 15.96 5.42 14.83 4.57 13.67C3.71 12.47 3.02 11.27 2.53 10.11C2.01 8.87 1.75 7.67 1.75 6.54C1.75 5.76 1.89 5.02 2.16 4.33C2.44 3.62 2.89 2.96 3.5 2.39C4.27 1.63 5.15 1.25 6.09 1.25C6.48 1.25 6.88 1.34 7.22 1.5C7.61 1.68 7.94 1.95 8.18 2.31L10.5 5.58C10.71 5.87 10.87 6.15 10.98 6.43C11.11 6.73 11.18 7.03 11.18 7.32C11.18 7.7 11.07 8.07 10.86 8.42C10.71 8.69 10.48 8.98 10.19 9.27L9.51 9.98C9.52 10.01 9.53 10.03 9.54 10.05C9.66 10.26 9.9 10.62 10.36 11.16C10.85 11.72 11.31 12.23 11.77 12.7C12.36 13.28 12.85 13.74 13.31 14.12C13.88 14.6 14.25 14.84 14.47 14.95L14.45 15L15.18 14.28C15.49 13.97 15.79 13.74 16.08 13.59C16.63 13.25 17.33 13.19 18.03 13.48C18.29 13.59 18.57 13.74 18.87 13.95L22.19 16.31C22.56 16.56 22.83 16.88 22.99 17.26C23.14 17.64 23.21 17.99 23.21 18.34C23.21 18.82 23.1 19.3 22.89 19.75C22.68 20.2 22.42 20.59 22.09 20.95C21.52 21.58 20.9 22.03 20.18 22.32C19.49 22.6 18.74 22.75 17.95 22.75ZM6.09 2.75C5.54 2.75 5.03 2.99 4.54 3.47C4.08 3.9 3.76 4.37 3.56 4.88C3.35 5.4 3.25 5.95 3.25 6.54C3.25 7.47 3.47 8.48 3.91 9.52C4.36 10.58 4.99 11.68 5.79 12.78C6.59 13.88 7.5 14.95 8.5 15.96C9.5 16.95 10.58 17.87 11.69 18.68C12.77 19.47 13.88 20.11 14.98 20.57C16.69 21.3 18.29 21.47 19.61 20.92C20.12 20.71 20.57 20.39 20.98 19.93C21.21 19.68 21.39 19.41 21.54 19.09C21.66 18.84 21.72 18.58 21.72 18.32C21.72 18.16 21.69 18 21.61 17.82C21.58 17.76 21.52 17.65 21.33 17.52L18.01 15.16C17.81 15.02 17.63 14.92 17.46 14.85C17.24 14.76 17.15 14.67 16.81 14.88C16.61 14.98 16.43 15.13 16.23 15.33L15.47 16.08C15.08 16.46 14.48 16.55 14.02 16.38L13.75 16.26C13.34 16.04 12.86 15.7 12.33 15.25C11.85 14.84 11.33 14.36 10.7 13.74C10.21 13.24 9.72 12.71 9.21 12.12C8.74 11.57 8.4 11.1 8.19 10.71L8.07 10.41C8.01 10.18 7.99 10.05 7.99 9.91C7.99 9.55 8.12 9.23 8.37 8.98L9.12 8.2C9.32 8 9.47 7.81 9.57 7.64C9.65 7.51 9.68 7.4 9.68 7.3C9.68 7.22 9.65 7.1 9.6 6.98C9.53 6.82 9.42 6.64 9.28 6.45L6.96 3.17C6.86 3.03 6.74 2.93 6.59 2.86C6.43 2.79 6.26 2.75 6.09 2.75ZM14.45 15.01L14.29 15.69L14.56 14.99C14.51 14.98 14.47 14.99 14.45 15.01Z" fill="#606060"/>
</svg>
