<svg width="16" height="16" viewBox="0 0 16 16" fill="none" xmlns="http://www.w3.org/2000/svg">
<path d="M11.6333 15.1667C10.8799 15.1667 10.0866 14.9867 9.26659 14.64C8.46659 14.3 7.65992 13.8333 6.87325 13.2667C6.09325 12.6933 5.33992 12.0533 4.62659 11.3533C3.91992 10.64 3.27992 9.88667 2.71325 9.11334C2.13992 8.31334 1.67992 7.51334 1.35325 6.74C1.00659 5.91334 0.833252 5.11334 0.833252 4.36C0.833252 3.84 0.926585 3.34667 1.10659 2.88667C1.29325 2.41334 1.59325 1.97334 1.99992 1.59334C2.51325 1.08667 3.09992 0.833336 3.72659 0.833336C3.98659 0.833336 4.25325 0.893336 4.47992 1C4.73992 1.12 4.95992 1.3 5.11992 1.54L6.66659 3.72C6.80659 3.91334 6.91325 4.1 6.98659 4.28667C7.07325 4.48667 7.11992 4.68667 7.11992 4.88C7.11992 5.13334 7.04659 5.38 6.90659 5.61334C6.80659 5.79334 6.65325 5.98667 6.45992 6.18L6.00659 6.65334C6.01325 6.67334 6.01992 6.68667 6.02659 6.7C6.10659 6.84 6.26659 7.08 6.57325 7.44C6.89992 7.81334 7.20659 8.15334 7.51325 8.46667C7.90659 8.85334 8.23325 9.16 8.53992 9.41334C8.91992 9.73334 9.16659 9.89334 9.31325 9.96667L9.29992 10L9.78659 9.52C9.99325 9.31334 10.1933 9.16 10.3866 9.06C10.7533 8.83334 11.2199 8.79334 11.6866 8.98667C11.8599 9.06 12.0466 9.16 12.2466 9.3L14.4599 10.8733C14.7066 11.04 14.8866 11.2533 14.9933 11.5067C15.0933 11.76 15.1399 11.9933 15.1399 12.2267C15.1399 12.5467 15.0666 12.8667 14.9266 13.1667C14.7866 13.4667 14.6133 13.7267 14.3933 13.9667C14.0133 14.3867 13.5999 14.6867 13.1199 14.88C12.6599 15.0667 12.1599 15.1667 11.6333 15.1667ZM3.72659 1.83334C3.35992 1.83334 3.01992 1.99334 2.69325 2.31334C2.38659 2.6 2.17325 2.91334 2.03992 3.25334C1.89992 3.6 1.83325 3.96667 1.83325 4.36C1.83325 4.98 1.97992 5.65334 2.27325 6.34667C2.57325 7.05334 2.99325 7.78667 3.52659 8.52C4.05992 9.25334 4.66659 9.96667 5.33325 10.64C5.99992 11.3 6.71992 11.9133 7.45992 12.4533C8.17992 12.98 8.91992 13.4067 9.65325 13.7133C10.7933 14.2 11.8599 14.3133 12.7399 13.9467C13.0799 13.8067 13.3799 13.5933 13.6533 13.2867C13.8066 13.12 13.9266 12.94 14.0266 12.7267C14.1066 12.56 14.1466 12.3867 14.1466 12.2133C14.1466 12.1067 14.1266 12 14.0733 11.88C14.0533 11.84 14.0133 11.7667 13.8866 11.68L11.6733 10.1067C11.5399 10.0133 11.4199 9.94667 11.3066 9.9C11.1599 9.84 11.0999 9.78 10.8733 9.92C10.7399 9.98667 10.6199 10.0867 10.4866 10.22L9.97992 10.72C9.71992 10.9733 9.31992 11.0333 9.01325 10.92L8.83325 10.84C8.55992 10.6933 8.23992 10.4667 7.88659 10.1667C7.56659 9.89334 7.21992 9.57334 6.79992 9.16C6.47325 8.82667 6.14659 8.47334 5.80659 8.08C5.49325 7.71334 5.26659 7.4 5.12659 7.14L5.04659 6.94C5.00659 6.78667 4.99325 6.7 4.99325 6.60667C4.99325 6.36667 5.07992 6.15334 5.24659 5.98667L5.74659 5.46667C5.87992 5.33334 5.97992 5.20667 6.04659 5.09334C6.09992 5.00667 6.11992 4.93334 6.11992 4.86667C6.11992 4.81334 6.09992 4.73334 6.06659 4.65334C6.01992 4.54667 5.94659 4.42667 5.85325 4.3L4.30659 2.11334C4.23992 2.02 4.15992 1.95334 4.05992 1.90667C3.95325 1.86 3.83992 1.83334 3.72659 1.83334ZM9.29992 10.0067L9.19325 10.46L9.37325 9.99334C9.33992 9.98667 9.31325 9.99334 9.29992 10.0067Z" fill="#404040"/>
<path d="M12.3333 6.5C12.06 6.5 11.8333 6.27333 11.8333 6C11.8333 5.76 11.5933 5.26 11.1933 4.83333C10.8 4.41333 10.3667 4.16666 10 4.16666C9.72667 4.16666 9.5 3.94 9.5 3.66666C9.5 3.39333 9.72667 3.16666 10 3.16666C10.6467 3.16666 11.3267 3.51333 11.92 4.14666C12.4733 4.74 12.8333 5.46666 12.8333 6C12.8333 6.27333 12.6067 6.5 12.3333 6.5Z" fill="#404040"/>
<path d="M14.6667 6.5C14.3933 6.5 14.1667 6.27334 14.1667 6C14.1667 3.7 12.3 1.83334 10 1.83334C9.72667 1.83334 9.5 1.60667 9.5 1.33334C9.5 1.06 9.72667 0.833336 10 0.833336C12.8467 0.833336 15.1667 3.15334 15.1667 6C15.1667 6.27334 14.94 6.5 14.6667 6.5Z" fill="#404040"/>
</svg>
