<svg width="16" height="16" viewBox="0 0 16 16" fill="none" xmlns="http://www.w3.org/2000/svg">
<path d="M6.11357 10.3867C5.9869 10.3867 5.86023 10.34 5.76023 10.24C5.5669 10.0467 5.5669 9.72666 5.76023 9.53332L9.53357 5.75999C9.7269 5.56666 10.0469 5.56666 10.2402 5.75999C10.4336 5.95332 10.4336 6.27332 10.2402 6.46666L6.4669 10.24C6.37357 10.34 6.24023 10.3867 6.11357 10.3867Z" fill="#868686"/>
<path d="M9.8869 10.3867C9.76023 10.3867 9.63357 10.34 9.53357 10.24L5.76023 6.46666C5.5669 6.27332 5.5669 5.95332 5.76023 5.75999C5.95357 5.56666 6.27357 5.56666 6.4669 5.75999L10.2402 9.53332C10.4336 9.72666 10.4336 10.0467 10.2402 10.24C10.1402 10.34 10.0136 10.3867 9.8869 10.3867Z" fill="#868686"/>
<path d="M10.0002 15.1667H6.00016C2.38016 15.1667 0.833496 13.62 0.833496 10V6.00001C0.833496 2.38001 2.38016 0.833344 6.00016 0.833344H10.0002C13.6202 0.833344 15.1668 2.38001 15.1668 6.00001V10C15.1668 13.62 13.6202 15.1667 10.0002 15.1667ZM6.00016 1.83334C2.92683 1.83334 1.8335 2.92668 1.8335 6.00001V10C1.8335 13.0733 2.92683 14.1667 6.00016 14.1667H10.0002C13.0735 14.1667 14.1668 13.0733 14.1668 10V6.00001C14.1668 2.92668 13.0735 1.83334 10.0002 1.83334H6.00016Z" fill="#868686"/>
</svg>
