<svg width="24" height="24" viewBox="0 0 24 24" fill="none" xmlns="http://www.w3.org/2000/svg">
<path d="M12 5.5C10.926 4.914 9.417 4 8 4C5.9 4 4 5.247 4 9C4 13.899 5.056 17.41 6.671 19.537C7.244 20.293 8.641 20.058 9.238 19.301C9.636 18.796 10.057 17.862 10.5 16.5C10.792 15.729 11.392 14.996 12 15C12.602 15 13.21 15.737 13.5 16.5C13.943 17.862 14.364 18.795 14.762 19.3C15.359 20.059 16.762 20.293 17.329 19.537C18.944 17.41 20 13.9 20 9C20 5.26 18.092 4 16 4C14.577 4 13.08 4.911 12 5.5ZM12 5.5L15 7" stroke="#202020" stroke-width="1.5" stroke-linecap="round" stroke-linejoin="round"/>
</svg>
