<svg width="16" height="16" viewBox="0 0 16 16" fill="none" xmlns="http://www.w3.org/2000/svg">
<path d="M11.8599 15.1667H4.13992C2.31325 15.1667 0.833252 13.68 0.833252 11.8533V6.91333C0.833252 6.00667 1.39325 4.86667 2.11325 4.30667L5.70659 1.50667C6.78659 0.666667 8.51325 0.626667 9.63325 1.41333L13.7533 4.3C14.5466 4.85333 15.1666 6.04 15.1666 7.00667V11.86C15.1666 13.68 13.6866 15.1667 11.8599 15.1667ZM6.31992 2.29333L2.72659 5.09333C2.25325 5.46667 1.83325 6.31333 1.83325 6.91333V11.8533C1.83325 13.1267 2.86659 14.1667 4.13992 14.1667H11.8599C13.1333 14.1667 14.1666 13.1333 14.1666 11.86V7.00667C14.1666 6.36667 13.7066 5.48 13.1799 5.12L9.05992 2.23333C8.29992 1.7 7.04659 1.72667 6.31992 2.29333Z" fill="#404040"/>
<path d="M8 12.5C7.72667 12.5 7.5 12.2733 7.5 12V10C7.5 9.72667 7.72667 9.5 8 9.5C8.27333 9.5 8.5 9.72667 8.5 10V12C8.5 12.2733 8.27333 12.5 8 12.5Z" fill="#404040"/>
</svg>
