<svg width="24" height="24" viewBox="0 0 24 24" fill="none" xmlns="http://www.w3.org/2000/svg">
<path d="M21 8V16C21 17.3261 20.4732 18.5979 19.5355 19.5355C18.5979 20.4732 17.3261 21 16 21H8C6.67392 21 5.40215 20.4732 4.46447 19.5355C3.52678 18.5979 3 17.3261 3 16V8C3 6.67392 3.52678 5.40215 4.46447 4.46447C5.40215 3.52678 6.67392 3 8 3H16C17.3261 3 18.5979 3.52678 19.5355 4.46447C20.4732 5.40215 21 6.67392 21 8Z" stroke="#202020" stroke-width="1.5" stroke-linecap="round" stroke-linejoin="round"/>
<path d="M13.9 18H10.1C9.94087 18 9.78826 17.9368 9.67574 17.8243C9.56321 17.7117 9.5 17.5591 9.5 17.4V15.1C9.5 14.9409 9.43679 14.7883 9.32426 14.6757C9.21174 14.5632 9.05913 14.5 8.9 14.5H6.6C6.44087 14.5 6.28826 14.4368 6.17574 14.3243C6.06321 14.2117 6 14.0591 6 13.9V10.1C6 9.94087 6.06321 9.78826 6.17574 9.67574C6.28826 9.56321 6.44087 9.5 6.6 9.5H8.9C9.05913 9.5 9.21174 9.43679 9.32426 9.32426C9.43679 9.21174 9.5 9.05913 9.5 8.9V6.6C9.5 6.44087 9.56321 6.28826 9.67574 6.17574C9.78826 6.06321 9.94087 6 10.1 6H13.9C14.0591 6 14.2117 6.06321 14.3243 6.17574C14.4368 6.28826 14.5 6.44087 14.5 6.6V8.9C14.5 9.05913 14.5632 9.21174 14.6757 9.32426C14.7883 9.43679 14.9409 9.5 15.1 9.5H17.4C17.5591 9.5 17.7117 9.56321 17.8243 9.67574C17.9368 9.78826 18 9.94087 18 10.1V13.9C18 14.0591 17.9368 14.2117 17.8243 14.3243C17.7117 14.4368 17.5591 14.5 17.4 14.5H15.1C14.9409 14.5 14.7883 14.5632 14.6757 14.6757C14.5632 14.7883 14.5 14.9409 14.5 15.1V17.4C14.5 17.5591 14.4368 17.7117 14.3243 17.8243C14.2117 17.9368 14.0591 18 13.9 18Z" stroke="#202020" stroke-width="1.5"/>
</svg>
