<svg width="16" height="16" viewBox="0 0 16 16" fill="none" xmlns="http://www.w3.org/2000/svg">
<path d="M7.99992 15.1667C7.47992 15.1667 6.97325 14.9 6.62659 14.4333L5.95325 13.5333C5.81325 13.3467 5.62659 13.24 5.42659 13.2267C5.22659 13.22 5.02659 13.3067 4.86659 13.4733L4.48659 13.1333L4.85325 13.4733C3.89325 14.5 3.15325 14.42 2.79992 14.28C2.43992 14.14 1.83325 13.68 1.83325 12.2V4.69333C1.83325 1.73333 2.68659 0.833333 5.47992 0.833333H10.5199C13.3133 0.833333 14.1666 1.73333 14.1666 4.69333V12.2C14.1666 13.6733 13.5599 14.1333 13.1999 14.28C12.8466 14.42 12.1133 14.5 11.1466 13.4733C10.9866 13.3 10.7866 13.2067 10.5799 13.2267C10.3799 13.24 10.1866 13.3467 10.0466 13.5333L9.37325 14.4333C9.02659 14.9 8.51992 15.1667 7.99992 15.1667ZM5.38659 12.22C5.41325 12.22 5.44659 12.22 5.47325 12.22C5.96659 12.2467 6.43325 12.5067 6.74659 12.9267L7.41992 13.8267C7.74659 14.26 8.24659 14.26 8.57325 13.8267L9.24659 12.9267C9.56659 12.5067 10.0266 12.2467 10.5266 12.22C11.0199 12.1933 11.5133 12.4 11.8733 12.7867C12.3799 13.3267 12.7066 13.3933 12.8266 13.3467C12.9866 13.28 13.1599 12.8933 13.1599 12.2V4.69333C13.1599 2.28667 12.7399 1.83333 10.5133 1.83333H5.47992C3.25325 1.83333 2.83325 2.28667 2.83325 4.69333V12.2C2.83325 12.9 3.00659 13.2867 3.16659 13.3467C3.27992 13.3933 3.61325 13.3267 4.11992 12.7867C4.47992 12.42 4.92659 12.22 5.38659 12.22Z" fill="#404040"/>
<path d="M10.82 7.83333H7.15332C6.87999 7.83333 6.65332 7.60667 6.65332 7.33333C6.65332 7.06 6.87999 6.83333 7.15332 6.83333H10.82C11.0933 6.83333 11.32 7.06 11.32 7.33333C11.32 7.60667 11.0933 7.83333 10.82 7.83333Z" fill="#404040"/>
<path d="M10.82 5.16667H7.15332C6.87999 5.16667 6.65332 4.94 6.65332 4.66667C6.65332 4.39333 6.87999 4.16667 7.15332 4.16667H10.82C11.0933 4.16667 11.32 4.39333 11.32 4.66667C11.32 4.94 11.0933 5.16667 10.82 5.16667Z" fill="#404040"/>
<path d="M5.18669 5.33333C4.82002 5.33333 4.52002 5.03333 4.52002 4.66667C4.52002 4.3 4.82002 4 5.18669 4C5.55335 4 5.85335 4.3 5.85335 4.66667C5.85335 5.03333 5.55335 5.33333 5.18669 5.33333Z" fill="#404040"/>
<path d="M5.18669 8C4.82002 8 4.52002 7.7 4.52002 7.33333C4.52002 6.96667 4.82002 6.66667 5.18669 6.66667C5.55335 6.66667 5.85335 6.96667 5.85335 7.33333C5.85335 7.7 5.55335 8 5.18669 8Z" fill="#404040"/>
</svg>
