<svg width="16" height="16" viewBox="0 0 16 16" fill="none" xmlns="http://www.w3.org/2000/svg">
<path d="M7.66683 14.5C3.90016 14.5 0.833496 11.4333 0.833496 7.66668C0.833496 3.90001 3.90016 0.833344 7.66683 0.833344C11.4335 0.833344 14.5002 3.90001 14.5002 7.66668C14.5002 11.4333 11.4335 14.5 7.66683 14.5ZM7.66683 1.83334C4.44683 1.83334 1.8335 4.45334 1.8335 7.66668C1.8335 10.88 4.44683 13.5 7.66683 13.5C10.8868 13.5 13.5002 10.88 13.5002 7.66668C13.5002 4.45334 10.8868 1.83334 7.66683 1.83334Z" fill="white"/>
<path d="M14.6666 15.1667C14.54 15.1667 14.4133 15.12 14.3133 15.02L12.98 13.6867C12.7866 13.4933 12.7866 13.1733 12.98 12.98C13.1733 12.7867 13.4933 12.7867 13.6866 12.98L15.02 14.3133C15.2133 14.5067 15.2133 14.8267 15.02 15.02C14.92 15.12 14.7933 15.1667 14.6666 15.1667Z" fill="white"/>
</svg>
