<svg width="16" height="16" viewBox="0 0 16 16" fill="none" xmlns="http://www.w3.org/2000/svg">
<path d="M7.99984 8.5C5.8865 8.5 4.1665 6.78 4.1665 4.66667C4.1665 2.55334 5.8865 0.833336 7.99984 0.833336C10.1132 0.833336 11.8332 2.55334 11.8332 4.66667C11.8332 6.78 10.1132 8.5 7.99984 8.5ZM7.99984 1.83334C6.43984 1.83334 5.1665 3.10667 5.1665 4.66667C5.1665 6.22667 6.43984 7.5 7.99984 7.5C9.55984 7.5 10.8332 6.22667 10.8332 4.66667C10.8332 3.10667 9.55984 1.83334 7.99984 1.83334Z" fill="white"/>
<path d="M13.7268 15.1667C13.4534 15.1667 13.2268 14.94 13.2268 14.6667C13.2268 12.3667 10.8801 10.5 8.0001 10.5C5.1201 10.5 2.77344 12.3667 2.77344 14.6667C2.77344 14.94 2.54677 15.1667 2.27344 15.1667C2.0001 15.1667 1.77344 14.94 1.77344 14.6667C1.77344 11.82 4.56677 9.5 8.0001 9.5C11.4334 9.5 14.2268 11.82 14.2268 14.6667C14.2268 14.94 14.0001 15.1667 13.7268 15.1667Z" fill="white"/>
</svg>
