<svg width="16" height="16" viewBox="0 0 16 16" fill="none" xmlns="http://www.w3.org/2000/svg">
<path d="M8.00008 8.49999C5.88675 8.49999 4.16675 6.77999 4.16675 4.66666C4.16675 2.55333 5.88675 0.833328 8.00008 0.833328C10.1134 0.833328 11.8334 2.55333 11.8334 4.66666C11.8334 6.77999 10.1134 8.49999 8.00008 8.49999ZM8.00008 1.83333C6.44008 1.83333 5.16675 3.10666 5.16675 4.66666C5.16675 6.22666 6.44008 7.49999 8.00008 7.49999C9.56008 7.49999 10.8334 6.22666 10.8334 4.66666C10.8334 3.10666 9.56008 1.83333 8.00008 1.83333Z" fill="#404040"/>
<path d="M2.27344 15.1667C2.0001 15.1667 1.77344 14.94 1.77344 14.6667C1.77344 11.82 4.56679 9.5 8.00012 9.5C8.27346 9.5 8.50012 9.72667 8.50012 10C8.50012 10.2733 8.27346 10.5 8.00012 10.5C5.12012 10.5 2.77344 12.3667 2.77344 14.6667C2.77344 14.94 2.54677 15.1667 2.27344 15.1667Z" fill="#404040"/>
<path d="M12.1333 14.7667C10.68 14.7667 9.5 13.5867 9.5 12.1333C9.5 10.68 10.68 9.5 12.1333 9.5C13.5867 9.5 14.7667 10.68 14.7667 12.1333C14.7667 13.5867 13.5867 14.7667 12.1333 14.7667ZM12.1333 10.5C11.2333 10.5 10.5 11.2333 10.5 12.1333C10.5 13.0333 11.2333 13.7667 12.1333 13.7667C13.0333 13.7667 13.7667 13.0333 13.7667 12.1333C13.7667 11.2333 13.0333 10.5 12.1333 10.5Z" fill="#404040"/>
<path d="M14.6667 15.1667C14.5401 15.1667 14.4134 15.12 14.3134 15.02L13.6467 14.3533C13.4534 14.16 13.4534 13.84 13.6467 13.6466C13.84 13.4533 14.1601 13.4533 14.3534 13.6466L15.0201 14.3133C15.2134 14.5066 15.2134 14.8267 15.0201 15.02C14.9201 15.12 14.7934 15.1667 14.6667 15.1667Z" fill="#404040"/>
</svg>
